<?xml version="1.0" standalone="no"?><!DOCTYPE svg PUBLIC "-//W3C//DTD SVG 1.1//EN"
        "http://www.w3.org/Graphics/SVG/1.1/DTD/svg11.dtd">
<svg t="1614228181742" class="icon" viewBox="0 0 1024 1024" version="1.1" xmlns="http://www.w3.org/2000/svg" p-id="4224"
     xmlns:xlink="http://www.w3.org/1999/xlink">
    <defs>
        <style type="text/css"></style>
    </defs>
    <path d="M306.016 881.28c-39.008-30.72-80.64-60.16-109.056-101.536-59.808-73.056-105.888-157.6-137.376-246.496-19.04-57.824-25.6-119.808-50.08-175.36-25.696-40.288 4.384-84.384 48.544-97.248 19.616-3.744 54.272-22.304 12.512-9.056-37.472 27.488-41.088-24.96-2.688-28.256 26.24-3.488 35.84-24.96 26.88-44.256-28.128-18.336 68.256-38.528 19.744-65.888-50.432-54.528 70.688-65.024 40.832-3.168-7.136 47.584 84.64-8.704 63.36 46.208 21.632 26.4 81.056 6.016 79.584 43.04 31.584 2.144 42.368 28.672 71.968 30.72 30.72 13.856 86.304 24.736 96.736 59.36-30.432 24.096-100.896-49.76-104.288 16.928 9.184 98.56 6.816 200.064 42.88 293.888 17.056 56.832 58.4 101.536 95.744 145.824 35.712 43.36 84.096 73.824 133.408 99.552 43.264 20.384 89.888 33.92 137.088 42.4 19.104-14.624 52.896-68.992 82.688-46.08 1.408 25.76-59.232 53.888-2.848 51.04 33.12-9.984 56.064 25.6 83.328-6.496 25.088 29.728 104.352-19.04 86.496 41.824-24.16 15.52-59.392 6.144-83.584 27.552-39.904-19.936-71.68 17.824-115.84 13.056-49.056 8.8-98.944 12.384-148.64 12.416-81.568-6.432-164.896-9.184-242.528-37.536-43.744-12.704-86.368-37.632-124.832-62.496z m68.896 29.856c42.656 18.432 84.448 37.888 131.2 43.776 74.24 10.272 150.912 26.208 225.408 11.68-33.696-15.232-68.608 5.984-102.176-10.88-40.288 8.672-83.488-2.208-124.448-7.552-46.592-20.736-96.864-34.976-140.448-61.952-54.496-19.872 28.16 25.504 42.912 29.216 34.048 19.328-37.472-9.952-47.584-17.952-28.512-16-32.16-12.672-2.816 3.584 5.92 3.456 11.776 7.072 17.952 10.08z m-81.248-57.408c41.376 15.328-0.16-29.088-19.168-26.528-8.416-14.56-32.096-23.776-15.36-31.584-30.08 10.4-31.488-39.68-45.664-32.544-31.776-10.016-12.384-45.6-50.208-67.424-3.456-23.04-37.632-43.008-48.544-77.728-4.832-17.76-38.624-68.832-17.824-21.344 17.664 45.728 48.768 84.896 74.656 124.032 20.064 37.248 43.808 76.192 80.416 99.424 12.384 11.872 24.224 29.984 41.696 33.696z m-119.168-130.88c1.408-6.24 7.552 13.536 0 0z m168.704 149.216c9.184-4.096-13.184-5.12 0 0z m22.464 8.192c-2.304-11.296-10.24 6.304 0 0z m28.16 11.744c13.344-12.768-20.64-8.032 0 0z m48.128 26.88c8.16-12.032-26.016-4.576 0 0z m-92.512-64.576c20.768-13.44-26.88-0.16 0 0z m21.088 10.496c-0.608-7.072-7.52 3.2 0 0z m105.376 65.792c16.992 10.656 98.976 23.456 47.616 4.384-8.576 1.792-95.2-24.48-47.616-4.384z m-167.296-130.304c-1.664-7.136-26.272-7.904 0 0z m49.056 28.608c12.8-8.928-26.496-6.816 0 0z m41.28 25.28c18.336-6.912-29.728-6.944 0 0zM288.64 778.528c19.872 15.264 80.224 1.952 30.464-9.088-22.624-12.064-73.696-20.32-38.912 7.264z m138.24 84.416c8.288-14.08-34.72-8.064 0 0z m-41.984-33.408c48.64 13.792-40.864-30.72-12-5.024l6.4 2.912z m84.224 48.672c46.048 0.416-41.6-6.304 0 0z m-198.176-126.304c-1.792-8.576-11.36 0.736 0 0z m276.032 169.984c1.248-15.488-15.008 11.52 0 0z m-197.504-121.856c-2.784-8.16-14.368-0.352 0 0z m-74.176-53.504c26.464-1.568-36.192-11.648 0 0z m-87.904-56.832c-3.296-12.672-28.768-22.784 0 0z m230.752 146.56c-4.864-5.536-2.304 1.184 0 0z m143.616 88.128c-0.416-8.416-7.808 3.2 0 0z m-156.352-101.248c2.56-10.88-22.56-3.296 0 0zM298.464 755.2c19.616-2.08-31.52-13.28 0 0z m180.992 112.512c30.624-12.16-29.856-5.984 0 0zM385.28 803.84c35.328 4.512-42.016-24.032-7.712-2.56z m122.752 75.424c32.992-19.712 22.112 46.176 55.936 5.536 33.376-24.32-28.8 30.176 12.32 4.384 29.728-19.936 73.696 9.376 101.408 18.976 19.968-0.992 39.392 17.28 59.872 6.176 39.392-10.656-77.056-15.776-46.496-34.56-36.064 10.464-62.72-12.544-80.416-35.616-40.448-9.344-87.2-29.984-107.392-65.792-8.192-13.44 11.904 1.888-7.072-20.064-24.352-21.664-36.512-46.304-52.896-72.608-19.488-10.4-21.76-41.088-23.776-1.024 0.16-25.312-23.584-42.336-29.408-35.232-0.096-24.352 25.44-12.16 7.552-30.176-3.84-25.248-16.512-51.584-20.32-80.096-5.888-13.728-0.864-43.136-20.192-12.032-7.04 32.864-2.336-40.416 8.608-16.224 14.368-24.704-5.12-21.76-5.984-18.336 9.376-20.832 5.984-50.336-2.432-39.072 4.992-22.048 7.904-81.152-7.456-70.656 9.312-23.04 17.664-105.504-22.784-74.08-16.384 0.224-44.704 5.984-58.144 12.64 42.08 23.168-4.224 8.352-21.344 4.704-2.208 21.408-19.2 12.16-40.352 12.384 33.824 4.192-16.48 34.56-35.872 22.784-25.184 12.032 21.76 42.112 0.512 51.424 2.592 13.984-38.624-5.088-35.424 27.296-24.448-10.272-3.328 38.4 8.928 21.92 41.6 11.264 29.28 36.96 30.336 61.312-6.784 14.208-33.504-33.408-5.984-31.2-21.664-35.296-23.968-12.768-42.016 3.616-4.224 1.184 46.048 23.328 14.496 34.272 27.744 4.256 28.512 28.576 34.144 43.936 16.672 17.376 13.28-19.2 33.248 1.696-12.64-18.592-66.848-52.384-23.2-41.568-0.224-18.72-7.904-33.824 5.504-33.44 13.216-23.968-13.856 59.168 16 28.672 8.224-3.616 10.272-24.032 25.184 1.92 21.536 21.248 7.776 36.608-22.656 17.184 5.408 18.464 40.704 25.056 34.08 53.984 7.04 25.376 16.864 16.032 25.44 14.592 6.752 24.672 10.528 6.528 10.88-5.248 30.752 6.624 23.552 24.8 33.184 37.536 21.216 9.568-30.368-64.928 6.048-22.432 38.304 34.592 14.368 49.056-20.064 43.52 21.76-1.76 28.8 29.44 56.032 28.32 24.832 11.808 41.632 57.184-1.152 38.272-14.848-13.344-67.36-29.856-24.448-4.448 39.648 18.336 71.072 29.344 109.312 52.352 27.296 19.552 39.168 41.888 49.504 46.336-22.944 10.976-69.248-8.8-34.848-14.848-21.472-3.872-45.568-14.72-25.056 11.936 17.504 14.624 61.856 13.056 69.856 14.72-6.784 14.848-18.336 16.032 0.256 17.184-20.736 11.104 6.656 12.8 8.576 19.072z m-42.4-119.808c-12.64-13.216-15.904-37.984-2.272-16.416 7.008 2.816 22.4 40.416 2.272 16.416z m138.144 87.776c7.904-0.48 0.256 5.984 0 0z m-158.112-120.16c-0.48-19.968 4.576 15.392 0 0z m-13.76-18.464c-15.872-30.688 20.064 8.704 0 0z m-166.4-114.848c9.312-2.528 4.576 15.968 0 0z m132.448 71.744c5.728-21.504 6.752 18.08 0 0z m-93.568-65.056c-6.624-11.872 13.792 11.136 0 0z m80.288 25.76c-15.008-33.696 10.656-18.432 3.328 5.536z m-138.496-92.352c-6.752-11.104-17.824-43.52-14.24-53.408 3.232 16.128 34.304 69.408 15.232 22.112-21.088-39.68 25.184 12.896 29.952 22.784 2.176 9.824-13.024-2.688-2.72 20.384-18.784-26.336-11.104 14.496-28.192-11.872z m-42.784-29.504c1.76-25.728 9.824 17.632 0 0z m19.232 6.624c9.184-19.424 15.584 27.04 0 0z m-46.272-35.84c-15.968-15.776-27.488-30.432 0.736-9.824 10.88 0.416-24.16-33.184 2.592-10.656 28.16 5.12 13.92 46.176-3.328 20.48z m24.32-0.64c9.248-9.184 4.896 9.056 0 0z m14.912 4.832c-13.984-26.336 17.056 11.008 0 0z m-29.728-28.48c-46.336-41.216 58.24 21.6 7.552 7.68zM318.592 528c-20.064-12.032-5.28-84.64 1.536-34.976 19.488-6.304-1.056 25.632 13.44 25.344-2.272 20.192-8.8 27.424-14.976 9.632z m49.056 29.024c2.016-21.888 4.192 14.944 0 0z m-8.512-8.448c2.272-9.344 0.256 11.008 0 0z m-164.16-111.232c-29.728-41.088 86.496 41.504 19.072 10.4-7.04-1.824-15.52-2.528-19.072-10.4z m94.56 50.112c-2.816-34.56 6.272 5.728 0 0z m71.776 46.048c5.536-19.712 0.416 13.024 0 0z m-161.792-111.872c17.696-3.744 73.312 31.104 22.24 9.984-5.664-6.304-17.792-3.424-22.24-9.984z m151.872 75.744c1.888-35.36 10.592-21.12 0.096 5.024z m-138.688-88.032c7.2-10.592-19.168-47.776 3.808-13.344 9.888 7.904 28.672 13.216 12.064 16.512 26.08 23.008-6.368 6.24-15.872-3.168z m131.2 76.96c4.992-40.288 4.384 23.584 0 0z m-146.272-114.176c5.504-2.336 2.912 7.328 0 0z m34.208 20.416c8.8-18.528 16.224 20.608 0 0z m96.576 53.696c-0.096-7.136 1.824 10.336 0 0z m-5.6-12.352c-13.408-33.12 12.448 17.504 0 0z m-8.224-21.728c-2.272-13.664 7.68 17.184 0 0z m13.376-21.76c-9.216-16.224 11.616-71.424 13.92-37.152-9.696 26.656-2.784 41.6 3.968 5.792 12.512-28.16-2.688 55.584-17.888 31.36z m13.76-82.08c4-4.896 0.896 5.92 0 0z m-22.976 452.8c-5.472-4.736 0.672 3.04 0 0z m47.36 23.936c26.272 6.784 26.144-4.096 2.336-7.296-12.8-11.936-53.152-24.544-17.024-1.504 2.4 6.048 9.984 5.92 14.688 8.8z m-93.504-62.08c14.496 10.784 54.624 30.688 20.64 4.096 11.488-13.312-21.92-20.384-10.848-29.28-28.16-17.248-22.176-15.712-2.464-15.2-33.888-15.104 4.864-13.984 3.04-21.76-13.056-2.56-64.864-23.008-34.336 1.696-30.976-15.776-7.392 5.888-16.736 3.584-31.712-8.608 28.16 24.096-5.024 16 18.144 14.368 48.896 36.864 7.68 15.232-5.472 7.808 29.472 19.616 38.048 25.6z m49.472 28.48c60.192 19.36-29.472-23.712 0 0z m253.44 153.504c0.864-11.936-8.192 10.24 0 0z m26.112 10.976c13.856-13.44 0.544 21.472 23.008-3.296 0.256-17.696-0.672-28.16-25.824-6.656-6.912 3.84-9.984 20.192 2.816 9.952zM188.064 656.224c-4.256-16.768-29.856-16.64 0 0z m27.84 18.24c-10.336-17.152-36.864-15.52 0 0z m158.272 95.456c15.456 13.696 70.944 10.08 18.784 1.696-7.776-11.488-49.12-8.704-18.784-1.696z m217.536 134.368c23.808-19.968-23.04 8.864 0 0z m49.472 33.952c0.128-6.4-10.24 2.816 0 0z m0.064-8.96c26.336-27.904-25.504 1.664 0 0zM119.68 598.944c-22.432-32-13.952-46.432-35.616-72.544-4.096-20.064-37.12-65.408-17.056-17.312 18.336 28.128 23.808 71.648 52.704 89.856z m513.28 321.472c48.48-31.328-19.84-13.664 0 0z m36.992 14.496c24.32-20.832-15.36-4.352 0 0zM179.84 620.8c6.944-10.336-17.92-1.312 0 0z m482.4 304.16c23.52-15.136-5.376-12.8-4.256 1.376z m-318.784-200.896c-0.864-10.24-12.416 0.864 0 0z m19.68 11.328c-6.24-12.672-9.6 2.016 0 0z m336.8 199.872c30.08-21.76-18.272-4.192-6.304 4.096z m-11.52-5.568c24.48-20.576-25.888 9.088 0 0z m58.88 39.168c16.48-11.008-20-3.552 0 0zM194.944 613.376c22.048 4.96 88.16 54.368 49.152 3.424-19.968-5.888-7.968-54.752-28.384-46.08 13.664 22.816 11.264 32.544-17.44 18.176-36.096-17.632-20.256 8.704-13.216 15.968-9.6 2.208 12.704 8.352 9.888 8.544z m-100.512-79.36c3.936-16.352-36.384-89.888-19.04-36.864 6.24 11.104 5.6 32.16 19.04 36.864z m184.48 113.76c-11.36-9.504-0.544-1.376 0 0z m28 6.464c0-17.28-30.944-7.008 0 0z m242.432 152.896c-4.608-11.872-18.272-0.256 0 0z m11.648 8.48c-1.696-6.624-6.688 1.28 0 0z m96.128 60.544c9.216-6.816-11.52-0.864 0 0zM144.64 546.816c26.464-10.24-28.32-7.296 0 0z m383.36 241.536c-0.288-17.12-16.864 4.256 0 0zM134.176 522.496c16.992-5.76-15.712-3.808 0 0z m49.28 23.904c-0.288-5.664-5.216 2.144 0 0z m601.184 368.64c21.888-4.448 71.648 11.104 79.648-5.792-26.496-0.64-91.744-18.688-94.816 4.32l5.792 0.928zM199.168 550.304c0.384-17.376-13.536-0.64 0 0z m-129.632-89.92c-5.888-33.056-22.4-5.024 0 0z m30.912 7.744c0.384-10.624-28.288-9.568 0 0z m17.664 8.672c-5.12-4.128-4 5.216 0 0z m111.136 71.264c5.216-4.768-12.384-3.552 0 0z m-122.88-90.816c-2.976-24.96-35.84-3.744 0 0z m-63.392-41.12c-0.864-11.52-6.144 4.352 0 0z m9.408-7.136c-1.536-13.664-8.096 1.696 0 0z m52.064 31.104c22.048-8.672-40.096-17.92-4.48-1.664z m696.928 430.464c14.08-12.928-17.92-4 0 0z m84.224 43.648c5.632-16.736-14.24 2.176 0 0zM109.792 412.832c2.336-16.16-17.44 3.2 0 0z m-74.08-49.6c-3.968-22.816-3.424-62.88 34.656-49.312-50.816 10.08 35.168 63.136 24.32 21.248 21.344 1.024 41.824-12.64 30.56 8.096C167.36 338.624 196.544 302.144 237.216 307.2c31.648-4.192 66.304-7.328 100.448-20.096 28.064-2.048 55.072-32.256 39.68-50.144-38.24-3.232-78.304 1.536-120.608 9.952-46.848 9.728-89.44 28.256-136.736 36.224-46.08 6.176 9.248 17.056-3.936 19.456-24.064 8.352 28.672 13.984-3.104 22.784-19.616-3.744-40.096-10.496-31.712-31.136-44.16 5.664-82.976 24.032-48.096 68.96z m106.4-54.208c10.368-38.144 55.456 31.36 16.992 5.024-4.608-3.424-12.16-6.24-16.992-5.024z m2.016-18.496c14.944-11.104 7.936 6.24 0 0z m18.976 0.32c1.376-17.536 43.424 9.312 6.944 6.304z m25.952-10.432c9.472-11.104 2.72 9.856 0 0z m6.656-4.448c15.776-18.944 89.376-12.064 35.488-1.824-14.432-10.88-25.504 6.4-35.488 1.824z m96.032-14.816c-2.4-51.808 47.712 18.432 0 0z m27.264-0.16c9.952-26.112 38.656-10.464 4.608-5.248 0.736 2.784-1.024 13.472-4.608 5.248z m-219.936 138.464c29.728-18.208-31.616-15.776 0 0z m21.984 6.144c10.464-11.104-22.656-4.512 0 0z m-64.864-46.08c17.024-13.024-20.096-4.96 0 0z m879.072 549.952c0.512-15.136-12.96 6.816 0 0z m-89.312-60.96c2.56-17.44-11.52 1.536 0 0z m113.92 66.848c23.776 0 72.032-7.392 20.256-7.392-8.096 1.28-47.328 1.024-20.256 7.392zM140.384 394.848c19.232-1.28 30.112-21.216-3.712-20.064-52.48-5.408 46.24 17.92-6.752 11.264-7.136 4.704 10.08 10.112 10.464 8.8z m16.96 8.608c-2.048-12.384-5.984 6.56 0 0z m20.064-53.632c8.416-10.368-11.52-2.784 0 0z m-64-107.008c34.4-11.68 81.376-24.8 97.568 5.76-16.512-19.872-6.656-39.424 8.96-10.368 22.016 29.408 33.056-13.344 18.688-23.264 16.352 20.32 34.944 29.92 10.976 1.28 26.016-31.328-52.192 4.128-69.984 3.744-8.544 3.84-88.352 20.352-66.208 22.816z m20.128-38.528c19.616-14.816 67.744 8.8 36.864-14.72-2.976-2.656-67.68 17.824-36.864 14.72z m71.424 2.944c22.944 0.544-9.856-30.816 17.44-16.608-4.48-14.688-31.84-17.408-45.184-23.264-7.552 13.408 15.36 40.032 27.744 39.84z m-58.88-64.864c7.936-10.752-13.92 5.472 0 0z m29.184 7.008c36.96-4.896-9.376-15.904-7.424-0.416zM120.8 106.72c-26.016-33.952 48.896 5.728 22.496-29.856-22.272-17.696-43.648 19.968-22.496 29.856z m333.856 179.84c11.936-21.152-49.28-28.512-8.032-7.456 3.808 1.28 2.944 8.96 8.032 7.456z"
          p-id="4225"></path>
</svg>
